<?xml version="1.0" encoding="utf-8"?>
<!-- Generator: Adobe Illustrator 27.0.0, SVG Export Plug-In . SVG Version: 6.00 Build 0)  -->
<svg version="1.1" id="Layer_1" xmlns="http://www.w3.org/2000/svg" xmlns:xlink="http://www.w3.org/1999/xlink" x="0px" y="0px"
	 viewBox="0 0 260 260" style="enable-background:new 0 0 260 260;" xml:space="preserve">
<style type="text/css">
	.st0{fill:#92278F;}
	.st1{fill:#27AAE1;}
	.st2{fill:#ED9FC5;}
	.st3{fill:#E9128D;}
	.st4{fill:#FFF200;}
	.st5{fill:#EE2A7B;}
	.st6{fill:#8DC63F;}
	.st7{fill:none;}
	.st8{font-family:'LuckiestGuy-Regular';}
	.st9{font-size:175px;}
</style>
<rect x="0.12" y="-0.71" class="st0" width="260.07" height="260.07"/>
<path class="st1" d="M71.07-0.71c4.53,0.32,8.87,1.45,13.08,3.14C89.24,4.47,94,7.17,98.76,9.87c6.97,3.96,14.09,7.62,21.64,10.39
	c3.96,1.45,7.97,2.71,12.08,3.66c2.44,0.56,4.91,0.96,7.4,1.33c5.15,0.77,10.33,0.79,15.5,0.56c3.18-0.14,6.34-0.6,9.49-1.16
	c3.71-0.66,7.4-1.45,11.04-2.4c3.44-0.9,6.87-1.82,10.28-2.84c4.38-1.3,8.75-2.66,13.2-3.67c2.92-0.67,5.89-1.06,8.89-1.32
	c5.57-0.47,10.99,0.1,16.27,1.9c4.61,1.57,8.73,4.03,12.57,7c2.34,1.81,4.48,3.83,6.55,5.94c3.51,3.58,6.48,7.58,9.05,11.87
	c2.4,4.01,4.36,8.24,5.65,12.74c0.64,2.22,1.16,4.47,1.36,6.79c0.05,0.62,0,1.28,0.27,1.87c0,1.15,0,2.29,0,3.44
	c-0.32,0.9-0.31,1.85-0.44,2.78c-0.42,2.91-1.21,5.71-2.28,8.43c-1.22,3.09-2.7,6.07-4.33,8.96c-1.94,3.43-3.96,6.81-5.93,10.22
	c-3.94,6.8-7.82,13.63-10.18,21.2c-0.89,2.87-1.47,5.79-1.85,8.78c-0.44,3.44-0.43,6.9-0.24,10.33c0.22,4,0.84,7.97,1.6,11.92
	c1.23,6.42,2.68,12.8,4.3,19.13c1.33,5.18,2.79,10.33,4.14,15.51c1.34,5.13,2.82,10.22,3.85,15.42c0.73,3.71,0.98,7.46,0.73,11.22
	c-0.53,7.97-3.37,15.08-8.08,21.49c-1.68,2.28-3.61,4.35-5.56,6.4c-1.69,1.77-3.42,3.48-5.21,5.14c-3.27,3.04-6.67,5.91-10.37,8.44
	c-4.19,2.87-8.65,5.2-13.47,6.77c-2.56,0.84-5.2,1.46-7.9,1.82c-2.08,0.28-4.15,0.48-6.24,0.44c-2.49-0.05-4.95-0.43-7.37-1.01
	c-5.45-1.32-10.46-3.7-15.42-6.22c-6.34-3.22-12.54-6.73-18.93-9.85c-4.78-2.34-9.64-4.47-14.71-6.09
	c-3.61-1.16-7.29-2.07-11.03-2.69c-2.55-0.42-5.13-0.77-7.74-0.85c-2.74-0.09-5.47-0.4-8.21-0.24c-2.36,0.14-4.73,0.26-7.09,0.53
	c-2.14,0.25-4.28,0.49-6.4,0.84c-2.08,0.35-4.14,0.8-6.2,1.23c-4.46,0.93-8.82,2.23-13.16,3.59c-4.82,1.5-9.67,2.93-14.59,4.02
	c-4.9,1.08-9.87,1.61-14.91,1.29c-4.66-0.3-9.08-1.5-13.33-3.41c-3.82-1.72-7.25-4.03-10.47-6.66c-2.41-1.97-4.6-4.17-6.7-6.48
	c-3.43-3.76-6.36-7.87-8.9-12.27c-2.8-4.86-4.96-10-6.26-15.47c-0.84-3.56-1.18-7.19-0.98-10.86c0.22-4.21,1.26-8.24,2.74-12.18
	c1.17-3.12,2.55-6.15,4.1-9.09c1.73-3.27,3.54-6.49,5.25-9.76c1.59-3.03,3.14-6.07,4.63-9.15c1.95-4.04,3.68-8.17,5.17-12.4
	c1.43-4.06,2.55-8.19,3.38-12.4c0.39-1.99,0.63-4.02,0.84-6.04c0.39-3.84,0.62-7.68,0.43-11.53c-0.13-2.56-0.28-5.13-0.6-7.68
	c-0.53-4.29-1.28-8.54-2.26-12.75c-1.3-5.59-2.98-11.06-4.66-16.54c-1.05-3.42-1.98-6.87-2.73-10.36c-0.48-2.25-0.77-4.55-1-6.85
	c-0.24-2.49-0.22-4.98-0.11-7.47c0.09-2.04,0.5-4.05,0.97-6.05c0.85-3.6,2.2-7,4-10.23c1.22-2.17,2.57-4.24,4.09-6.22
	c0.9-1.17,1.81-2.36,2.83-3.4c1.17-1.19,2.25-2.46,3.49-3.59c2.16-1.96,4.38-3.84,6.73-5.56c0.06-0.04,0.12-0.08,0.17-0.11
	c0.62-0.43,1.24-0.86,1.86-1.29c0.06-0.04,0.12-0.08,0.17-0.11c0.51-0.33,1.03-0.65,1.54-0.98c0.06-0.04,0.12-0.08,0.17-0.11
	c4.24-2.61,8.7-4.75,13.44-6.29c2.97-0.96,5.99-1.7,9.1-2.05c1.02-0.11,2.04-0.23,3.06-0.31C68.35-0.71,69.71-0.71,71.07-0.71z
	 M2.75,192.26c-0.07,2.32,0.29,4.98,0.9,7.59c1.26,5.41,3.45,10.48,6.22,15.27c2.75,4.74,5.99,9.13,9.84,13.05
	c2.4,2.45,4.93,4.76,7.72,6.77c4.4,3.16,9.16,5.5,14.49,6.64c1.89,0.4,3.81,0.71,5.73,0.8c1.65,0.08,3.31,0.05,4.97-0.08
	c3.05-0.23,6.06-0.72,9.04-1.38c5.6-1.24,11.05-3,16.53-4.66c5.19-1.57,10.43-2.9,15.76-3.85c3.26-0.58,6.54-1.02,9.85-1.26
	c2.29-0.16,4.58-0.39,6.88-0.41c2.84-0.03,5.67,0.2,8.51,0.41c1.94,0.14,3.87,0.37,5.78,0.68c4.06,0.65,8.06,1.6,11.98,2.87
	c4.36,1.41,8.6,3.14,12.73,5.12c4.83,2.31,9.56,4.81,14.29,7.33c3.6,1.92,7.19,3.87,10.91,5.58c3.14,1.45,6.31,2.75,9.62,3.73
	c2.16,0.64,4.37,1.09,6.59,1.23c2.98,0.19,5.96,0.01,8.92-0.59c4.02-0.81,7.88-2.06,11.58-3.83c6.15-2.94,11.46-7.05,16.45-11.62
	c2.27-2.07,4.41-4.27,6.55-6.47c3.58-3.68,6.64-7.73,8.8-12.41c2.54-5.48,3.69-11.23,3.37-17.29c-0.1-1.95-0.24-3.89-0.59-5.81
	c-0.87-4.7-2.18-9.3-3.42-13.92c-3.38-12.59-6.87-25.15-9.21-38c-0.71-3.89-1.26-7.81-1.45-11.76c-0.12-2.51-0.1-5.03,0.08-7.55
	c0.16-2.25,0.47-4.47,0.9-6.68c1.21-6.2,3.7-11.93,6.57-17.52c3.66-7.13,8.05-13.83,11.84-20.88c2.05-3.82,3.84-7.73,4.91-11.94
	c0.97-3.79,1.21-7.63,0.64-11.51c-0.68-4.64-2.2-9.02-4.25-13.21c-2.3-4.71-5.18-9.05-8.6-13.01c-2.24-2.6-4.68-5.02-7.33-7.22
	c-3.39-2.81-7.04-5.17-11.1-6.9c-3.52-1.5-7.2-2.33-11-2.62c-3.72-0.28-7.41,0.01-11.08,0.64c-5.67,0.96-11.15,2.69-16.66,4.29
	c-3.41,0.99-6.84,1.96-10.28,2.86c-4.61,1.21-9.26,2.21-13.98,2.88c-2.63,0.38-5.28,0.74-7.93,0.83c-4.97,0.17-9.94,0.14-14.89-0.57
	c-2.75-0.39-5.48-0.84-8.18-1.47c-5.9-1.36-11.62-3.28-17.18-5.66c-3.75-1.61-7.46-3.32-11.04-5.29c-2.62-1.45-5.27-2.83-7.87-4.32
	c-3.93-2.26-7.91-4.41-12.11-6.13c-3.76-1.54-7.64-2.63-11.69-3.05c-2.96-0.31-5.91-0.1-8.83,0.37c-6.38,1.02-12.3,3.32-17.91,6.49
	c-4.15,2.35-8,5.09-11.53,8.3c-4.18,3.8-7.8,8.07-10.66,12.96c-2.76,4.71-4.41,9.8-4.93,15.21c-0.35,3.64-0.12,7.3,0.46,10.92
	c0.8,5.01,2.14,9.9,3.64,14.74c2.3,7.43,4.43,14.89,5.75,22.57c0.77,4.48,1.27,8.99,1.47,13.53c0.15,3.37,0.03,6.73-0.24,10.1
	c-0.24,2.95-0.6,5.88-1.17,8.77c-0.86,4.42-2.09,8.76-3.62,13c-2.06,5.68-4.55,11.17-7.33,16.53c-1.38,2.66-2.73,5.34-4.17,7.98
	c-2.33,4.27-4.66,8.53-6.56,13.01C4.16,181.38,2.71,186.46,2.75,192.26z"/>
<path class="st2" d="M71.07-0.71c-1.36,0-2.72,0-4.08,0C67-0.76,67.01-0.81,67-0.85c1.35,0,2.71,0,4.06,0
	C71.05-0.81,71.05-0.76,71.07-0.71z"/>
<path class="st3" d="M41.39,7.94c-0.06,0.04-0.12,0.08-0.17,0.11C41.24,7.98,41.28,7.9,41.39,7.94z"/>
<path class="st3" d="M39.67,9.03c-0.06,0.04-0.12,0.08-0.17,0.11C39.53,9.07,39.56,8.99,39.67,9.03z"/>
<path class="st3" d="M37.64,10.44c-0.06,0.04-0.12,0.08-0.17,0.11C37.5,10.47,37.53,10.4,37.64,10.44z"/>
<path class="st1" d="M11.82,191.93c-0.06-4.42,1.11-8.24,2.64-11.97c2.31-5.64,5.58-10.78,8.43-16.13c2.21-4.14,4.32-8.32,6.22-12.6
	c2.16-4.87,4.07-9.83,5.61-14.94c1.26-4.2,2.27-8.47,2.9-12.81c0.31-2.16,0.55-4.34,0.68-6.53c0.17-2.87,0.39-5.74,0.25-8.62
	c-0.13-2.68-0.27-5.36-0.55-8.03c-0.29-2.79-0.65-5.57-1.14-8.33c-0.84-4.76-1.92-9.46-3.2-14.12c-1.03-3.75-2.24-7.45-3.35-11.17
	c-1.28-4.27-2.4-8.58-3.1-12.99c-0.43-2.7-0.51-5.43-0.3-8.14c0.21-2.82,1.07-5.49,2.46-7.97c1.46-2.6,3.05-5.11,4.87-7.48
	c1.8-2.35,3.81-4.51,5.95-6.56c3.94-3.77,8.43-6.75,13.35-9.06c3.47-1.63,7.04-3.07,10.84-3.71c1.84-0.31,3.72-0.32,5.62-0.13
	c4.42,0.43,8.41,2.08,12.35,3.95c4.94,2.35,9.73,4.97,14.55,7.55c6.46,3.46,12.98,6.77,19.81,9.4c4.15,1.6,8.41,2.85,12.76,3.82
	c2.46,0.55,4.93,1.04,7.42,1.37c2.34,0.31,4.69,0.54,7.05,0.69c3.69,0.23,7.37,0.24,11.05,0.09c4.05-0.16,8.09-0.65,12.1-1.29
	c6.96-1.11,13.74-2.89,20.46-4.98c5.01-1.55,10.02-3.13,15.17-4.18c2.38-0.48,4.76-0.88,7.18-1.09c5.46-0.48,10.48,0.85,15.22,3.44
	c2.56,1.4,4.9,3.13,7.1,5.06c1.83,1.62,3.58,3.31,5.14,5.17c3.69,4.39,6.77,9.16,8.79,14.58c0.89,2.39,1.57,4.83,1.8,7.35
	c0.15,1.63,0.09,3.3-0.06,4.96c-0.43,4.63-2.24,8.76-4.4,12.78c-1.6,2.99-3.43,5.84-5.15,8.76c-1.57,2.68-3.18,5.34-4.66,8.08
	c-1.2,2.23-2.4,4.46-3.49,6.75c-1.96,4.08-3.66,8.28-4.91,12.63c-0.66,2.3-1.11,4.66-1.5,7.04c-0.8,4.83-0.67,9.69-0.57,14.54
	c0.04,1.98,0.33,3.98,0.55,5.96c0.24,2.11,0.54,4.2,0.85,6.3c0.4,2.72,0.94,5.42,1.47,8.11c0.9,4.55,2.03,9.05,3.21,13.54
	c0.87,3.31,1.81,6.6,2.75,9.89c1.17,4.07,2.41,8.12,3.59,12.19c0.74,2.56,1.26,5.16,1.64,7.8c0.36,2.48,0.36,4.96,0.25,7.43
	c-0.16,3.54-1.02,6.97-2.42,10.26c-1.39,3.29-3.31,6.24-5.58,8.96c-1.67,2.01-3.57,3.8-5.58,5.48c-1.59,1.33-3.13,2.74-4.73,4.07
	c-3.05,2.54-6.16,5-9.63,6.97c-3.5,1.99-7.21,3.41-11.18,4.08c-2.24,0.38-4.51,0.41-6.79,0.24c-6.04-0.45-11.42-2.77-16.58-5.73
	c-2.74-1.57-5.53-3.06-8.31-4.57c-3.81-2.07-7.65-4.07-11.57-5.93c-5.9-2.82-11.97-5.21-18.29-6.94c-3.76-1.03-7.56-1.85-11.41-2.44
	c-2.08-0.32-4.19-0.51-6.29-0.7c-3.21-0.29-6.42-0.38-9.63-0.33c-4.14,0.05-8.25,0.43-12.36,0.95c-4.76,0.61-9.45,1.56-14.09,2.74
	c-3.58,0.91-7.1,2.07-10.64,3.12c-5.23,1.56-10.46,3.17-15.85,4.1c-2.95,0.51-5.92,0.88-8.91,0.67c-4.15-0.3-8.04-1.58-11.66-3.61
	c-3.55-2-6.69-4.56-9.52-7.48c-3.63-3.76-6.74-7.92-9.26-12.52c-2.02-3.69-3.64-7.53-4.62-11.62
	C12.08,195.98,11.77,193.81,11.82,191.93z M194.11,245.86c0.89,0.02,2.14,0.04,3.37-0.17c3.24-0.54,6.33-1.57,9.26-3.05
	c3.53-1.78,6.63-4.19,9.67-6.69c1.94-1.6,3.78-3.33,5.74-4.91c2.7-2.19,5.07-4.7,7.11-7.49c2.62-3.59,4.45-7.56,5.16-12.02
	c0.41-2.61,0.67-5.19,0.47-7.84c-0.22-2.83-0.64-5.6-1.4-8.32c-1.09-3.88-2.25-7.74-3.39-11.61c-2.07-7.07-4.04-14.16-5.67-21.35
	c-0.78-3.42-1.46-6.86-2.05-10.32c-0.45-2.66-0.82-5.33-1.15-8.01c-0.34-2.71-0.62-5.44-0.71-8.16c-0.15-4.75-0.08-9.51,0.72-14.23
	c0.44-2.55,0.96-5.07,1.7-7.54c1.86-6.18,4.52-12.01,7.56-17.7c2.76-5.17,5.82-10.16,8.82-15.19c1.73-2.9,3.39-5.83,4.53-9.02
	c1.34-3.72,1.97-7.53,1.32-11.51c-0.69-4.22-2.33-8.06-4.41-11.73c-2.78-4.88-6.36-9.12-10.6-12.8c-2.08-1.81-4.31-3.38-6.73-4.7
	c-3.96-2.15-8.18-3.21-12.69-3.01c-2.84,0.13-5.63,0.69-8.4,1.32c-5.41,1.24-10.68,2.94-15.98,4.55c-3.4,1.03-6.83,1.95-10.29,2.75
	c-7.21,1.67-14.5,2.69-21.88,3.04c-2.97,0.14-5.97,0.08-8.95-0.07c-2.91-0.15-5.8-0.46-8.69-0.82c-3-0.38-5.96-0.94-8.89-1.64
	c-3.76-0.89-7.45-2.01-11.07-3.37c-5.33-2-10.47-4.4-15.53-6.99c-5.49-2.82-10.88-5.82-16.38-8.61c-3.66-1.86-7.32-3.73-11.32-4.79
	c-3.05-0.8-6.12-1.09-9.25-0.41c-1.75,0.38-3.43,0.99-5.1,1.6c-3.21,1.18-6.3,2.62-9.21,4.44c-2.26,1.41-4.4,2.97-6.44,4.68
	c-2.48,2.09-4.66,4.45-6.68,6.97c-1.92,2.4-3.55,5.01-5.08,7.67c-1.34,2.34-2.1,4.91-2.18,7.56c-0.06,1.89-0.07,3.82,0.23,5.73
	c0.3,1.96,0.6,3.92,1.03,5.86c1.03,4.58,2.47,9.04,3.83,13.53c0.83,2.73,1.65,5.46,2.34,8.22c0.91,3.62,1.74,7.26,2.39,10.95
	c0.38,2.16,0.74,4.32,1.03,6.5c0.23,1.78,0.38,3.57,0.51,5.36c0.18,2.55,0.42,5.1,0.4,7.66c-0.03,3.71-0.24,7.41-0.71,11.11
	c-0.26,2.02-0.54,4.04-0.9,6.05c-0.53,2.91-1.27,5.76-2.06,8.61c-1.93,6.89-4.62,13.49-7.68,19.93c-2.4,5.04-5.02,9.96-7.78,14.81
	c-1.66,2.91-3.28,5.84-4.62,8.92c-1.36,3.15-2.49,6.35-2.9,9.78c-0.4,3.33,0.09,6.57,1.03,9.75c0.98,3.33,2.35,6.52,4.06,9.55
	c2.35,4.16,5.13,8.01,8.5,11.41c1.13,1.14,2.23,2.32,3.47,3.33c1.79,1.47,3.65,2.84,5.68,3.99c3.1,1.75,6.4,2.89,9.92,3.24
	c2.79,0.28,5.58-0.03,8.36-0.5c5.41-0.91,10.67-2.42,15.9-4.05c8.08-2.52,16.21-4.8,24.64-5.92c3.59-0.48,7.18-0.84,10.78-1
	c4.61-0.2,9.22-0.07,13.82,0.39c2.56,0.26,5.11,0.55,7.64,1.01c4.02,0.73,7.98,1.7,11.9,2.89c4.94,1.5,9.71,3.41,14.39,5.54
	c2.75,1.25,5.47,2.58,8.13,4.02c2.57,1.39,5.17,2.73,7.73,4.13c3.76,2.05,7.4,4.32,11.33,6.03
	C185.63,244.88,189.58,245.93,194.11,245.86z"/>
<path class="st4" d="M140.07,5.43c3.3,2.17,6.12,4.87,8.59,7.94c3,3.72,5.47,7.79,7.93,11.86c3.61,5.97,7.46,11.77,12.01,17.08
	c2.39,2.79,4.9,5.45,7.61,7.91c1.61,1.46,3.32,2.82,5.05,4.15c3.58,2.77,7.51,4.99,11.53,7.02c2.47,1.25,5.07,2.24,7.69,3.16
	c3.1,1.08,6.23,2.04,9.4,2.87c2.99,0.78,5.99,1.54,9.01,2.22c3.88,0.87,7.77,1.7,11.58,2.82c2.5,0.73,4.93,1.7,7.31,2.78
	c4.43,2.01,8.3,4.75,11.54,8.36c2.83,3.15,4.91,6.77,6.56,10.66c1.01,2.37,1.77,4.81,2.44,7.29c1.14,4.21,1.7,8.51,1.82,12.86
	c0.12,4.07-0.19,8.11-1.12,12.07c-0.46,1.95-1.02,3.89-1.86,5.73c-0.22,0.49-0.54,0.97-0.59,1.54c-0.49,0.87-0.97,1.74-1.46,2.61
	c-0.63,0.54-1.02,1.28-1.52,1.92c-1.55,2.03-3.34,3.82-5.31,5.43c-2.24,1.83-4.62,3.46-7.09,4.96c-2.93,1.78-5.9,3.49-8.85,5.24
	c-5.88,3.49-11.73,7.02-16.73,11.76c-1.89,1.8-3.58,3.77-5.13,5.88c-1.79,2.43-3.26,5.05-4.57,7.74c-1.53,3.13-2.75,6.41-3.85,9.73
	c-1.79,5.4-3.4,10.85-4.86,16.35c-1.2,4.5-2.28,9.03-3.45,13.53c-1.16,4.46-2.2,8.96-3.63,13.34c-1.02,3.12-2.43,6.08-4.22,8.83
	c-3.79,5.82-8.97,10.02-15.26,12.88c-2.24,1.02-4.58,1.77-6.94,2.49c-2.03,0.62-4.08,1.19-6.14,1.69c-3.77,0.92-7.58,1.65-11.46,2
	c-4.4,0.4-8.78,0.27-13.1-0.58c-2.3-0.45-4.57-1.11-6.77-1.98c-1.69-0.67-3.35-1.39-4.92-2.32c-1.87-1.1-3.57-2.43-5.16-3.9
	c-3.57-3.31-6.37-7.26-9.06-11.28c-3.44-5.14-6.66-10.43-10.18-15.52c-2.63-3.8-5.42-7.49-8.57-10.88
	c-2.25-2.41-4.66-4.67-7.23-6.73c-1.76-1.41-3.57-2.76-5.51-3.94c-2.04-1.23-3.98-2.63-6.13-3.67c-1.85-0.9-3.7-1.81-5.61-2.61
	c-1.73-0.72-3.46-1.45-5.22-2.08c-1.72-0.62-3.48-1.15-5.23-1.7c-3.78-1.19-7.65-2.05-11.52-2.87c-4.3-0.91-8.58-1.88-12.79-3.15
	c-4.18-1.26-8.18-2.97-11.86-5.36c-3.41-2.21-6.25-4.99-8.67-8.25c-2.17-2.93-3.79-6.14-5.12-9.5c-0.99-2.52-1.72-5.12-2.33-7.76
	c-1.01-4.31-1.48-8.68-1.54-13.09c-0.06-4.88,0.48-9.7,1.83-14.4c0.87-3.06,2.16-5.96,3.87-8.66c1.96-3.1,4.46-5.72,7.25-8.08
	c2.21-1.87,4.54-3.58,6.98-5.16c2.7-1.74,5.44-3.42,8.13-5.18c2.49-1.62,4.97-3.27,7.4-4.98c3.19-2.24,6.26-4.64,9.2-7.21
	c2.81-2.47,5.41-5.13,7.83-7.97c1.14-1.34,2.19-2.78,3.21-4.23c1.93-2.75,3.73-5.56,5.22-8.57c0.99-2,1.97-4.01,2.81-6.08
	c1.42-3.48,2.66-7.02,3.7-10.63c1.39-4.79,2.44-9.67,3.49-14.54c0.66-3.04,1.41-6.06,2.33-9.02c0.59-1.91,1.35-3.78,2.15-5.63
	c0.87-1.99,1.95-3.88,3.09-5.71c0.94-1.51,2.1-2.86,3.31-4.18c2.18-2.37,4.64-4.38,7.39-6.06c1.84-1.13,3.76-2.12,5.75-2.98
	c1.18-0.51,2.37-1.02,3.59-1.38c1.39-0.41,2.75-0.91,4.18-1.24c2.47-0.57,4.95-1.05,7.47-1.36c0.06,0,0.12-0.01,0.18-0.01
	c0.65-0.06,1.31-0.13,1.96-0.19c0.06,0,0.12-0.01,0.18-0.01c0.53-0.03,1.06-0.06,1.59-0.09c0.06,0,0.12-0.01,0.18-0.01
	c4.33-0.18,8.62,0.09,12.87,0.94c2.66,0.53,5.27,1.25,7.78,2.31c0.82,0.35,1.64,0.7,2.46,1.06C138.01,4.27,139.04,4.85,140.07,5.43z
	 M6.21,122.87c-1.04,1.73-1.9,3.91-2.54,6.15c-1.34,4.65-1.84,9.42-1.77,14.24c0.07,4.77,0.67,9.48,1.92,14.09
	c0.78,2.88,1.72,5.71,2.99,8.42c2,4.27,4.62,8.07,8.18,11.19c1.26,1.11,2.59,2.16,4.01,3.04c1.22,0.76,2.49,1.44,3.81,2.05
	c2.42,1.12,4.91,2.03,7.45,2.79c4.78,1.44,9.66,2.42,14.52,3.49c4.6,1.01,9.15,2.23,13.6,3.78c2.72,0.95,5.4,2,8.01,3.23
	c1.81,0.85,3.64,1.65,5.39,2.61c2.17,1.19,4.22,2.57,6.28,3.92c1.42,0.93,2.78,1.93,4.1,2.97c2.81,2.22,5.44,4.64,7.88,7.27
	c2.72,2.92,5.19,6.04,7.48,9.29c2.68,3.81,5.21,7.72,7.73,11.64c1.92,2.99,3.82,5.99,5.91,8.87c1.77,2.43,3.62,4.77,5.72,6.92
	c1.37,1.4,2.85,2.68,4.48,3.73c2.18,1.41,4.52,2.54,7.02,3.34c3.39,1.09,6.86,1.79,10.41,2.02c5.91,0.38,11.7-0.48,17.43-1.83
	c2.6-0.61,5.16-1.37,7.72-2.13c4.28-1.27,8.33-3.05,11.96-5.68c4.25-3.08,7.57-6.96,9.91-11.69c0.75-1.53,1.47-3.05,2.02-4.66
	c1.34-3.94,2.3-7.99,3.32-12.02c2.78-10.99,5.48-22.01,9.15-32.76c1.11-3.26,2.37-6.47,3.9-9.54c0.97-1.95,2.06-3.86,3.27-5.7
	c1.08-1.64,2.26-3.19,3.53-4.69c3.56-4.19,7.88-7.49,12.43-10.51c5.8-3.86,11.99-7.07,17.86-10.82c3.18-2.03,6.2-4.24,8.81-6.98
	c2.34-2.47,4.16-5.28,5.37-8.46c1.45-3.81,2.16-7.78,2.39-11.83c0.26-4.55-0.09-9.07-1-13.53c-0.6-2.93-1.42-5.8-2.5-8.59
	c-1.38-3.57-3.14-6.92-5.49-9.96c-2.04-2.63-4.47-4.83-7.23-6.66c-2.7-1.79-5.63-3.14-8.68-4.23c-4.71-1.68-9.61-2.7-14.47-3.82
	c-3.01-0.7-6.02-1.42-9.02-2.2c-4.01-1.04-7.96-2.26-11.83-3.75c-2.16-0.83-4.32-1.68-6.37-2.73c-3.84-1.98-7.6-4.12-11.06-6.76
	c-1.92-1.47-3.8-2.97-5.58-4.59c-3.9-3.54-7.42-7.42-10.64-11.59c-2.17-2.82-4.25-5.69-6.13-8.71c-1.37-2.21-2.8-4.39-4.13-6.63
	c-2.02-3.38-4.13-6.71-6.59-9.8c-2.2-2.77-4.68-5.24-7.57-7.29c-2.11-1.49-4.44-2.59-6.86-3.48c-5.28-1.94-10.75-2.71-16.36-2.69
	c-4.15,0.02-8.24,0.46-12.28,1.4c-4.79,1.11-9.35,2.81-13.6,5.31c-4.1,2.41-7.51,5.57-10.2,9.45c-1.81,2.61-3.19,5.49-4.29,8.48
	c-1.52,4.15-2.59,8.43-3.5,12.74c-1.41,6.62-2.96,13.19-5.23,19.58c-1.32,3.73-2.85,7.36-4.63,10.89c-1.32,2.62-2.84,5.12-4.48,7.56
	c-1.43,2.14-2.96,4.2-4.61,6.16c-2.53,2.99-5.31,5.76-8.27,8.33c-3.98,3.44-8.2,6.54-12.59,9.43c-2.18,1.44-4.34,2.9-6.55,4.28
	c-3.58,2.25-7.16,4.49-10.51,7.09C11.9,115.21,8.63,118.45,6.21,122.87z"/>
<path class="st5" d="M140.07,5.43c-1.03-0.58-2.06-1.16-3.09-1.73c0.03-0.03,0.05-0.06,0.07-0.1c1.03,0.58,2.05,1.15,3.08,1.73
	C140.09,5.35,140.08,5.38,140.07,5.43z"/>
<path class="st4" d="M13.23,126.47c1.83-3.38,4.35-5.78,7.09-7.97c4.15-3.3,8.81-5.81,13.26-8.66c3.43-2.2,6.81-4.48,10.08-6.92
	c3.71-2.78,7.27-5.73,10.6-8.95c2.75-2.65,5.32-5.46,7.64-8.49c1.16-1.51,2.26-3.06,3.29-4.67c1.35-2.11,2.74-4.19,3.85-6.44
	c1.04-2.09,2.07-4.18,3-6.33c0.96-2.24,1.87-4.5,2.68-6.8c1.39-3.97,2.56-8,3.57-12.08c0.81-3.28,1.47-6.6,2.2-9.9
	c0.85-3.78,1.83-7.53,3.17-11.18c0.82-2.23,1.92-4.34,3.23-6.3c1.36-2.05,3.14-3.71,5.25-5c2.21-1.35,4.49-2.58,6.87-3.61
	c2.37-1.02,4.81-1.81,7.3-2.45c4.6-1.19,9.27-1.54,13.98-1.2c3.33,0.24,6.65,0.66,9.81,1.79c1.53,0.55,2.96,1.34,4.32,2.29
	c3.17,2.21,5.5,5.15,7.69,8.25c2.75,3.88,5.27,7.91,7.83,11.91c3.43,5.37,6.97,10.65,11.04,15.56c2.47,2.98,5.18,5.74,8.06,8.32
	c1.63,1.46,3.3,2.89,5.05,4.19c1.64,1.23,3.33,2.4,5.06,3.51c2.7,1.74,5.5,3.32,8.35,4.77c3.15,1.6,6.41,2.95,9.73,4.16
	c5.75,2.11,11.66,3.64,17.65,4.92c4.46,0.95,8.94,1.88,13.29,3.28c2.01,0.64,3.99,1.35,5.92,2.22c4.35,1.96,7.59,5.1,10.09,9.08
	c1.35,2.15,2.39,4.46,3.23,6.86c0.7,2,1.31,4.03,1.71,6.11c0.93,4.9,1.24,9.83,0.47,14.8c-0.34,2.19-0.86,4.33-1.75,6.34
	c-0.58,1.3-1.33,2.54-2.16,3.74c-2.29,3.33-5.42,5.7-8.77,7.83c-2.48,1.59-5.09,2.97-7.63,4.46c-2.33,1.37-4.68,2.7-6.97,4.16
	c-1.86,1.18-3.72,2.37-5.52,3.64c-3.22,2.27-6.29,4.73-9.09,7.5c-1.48,1.46-2.82,3.07-4.13,4.71c-2.66,3.33-4.62,7.07-6.61,10.8
	c-0.81,1.52-1.44,3.16-2.12,4.76c-0.72,1.7-1.38,3.42-2.03,5.14c-0.85,2.23-1.59,4.51-2.33,6.78c-1.25,3.84-2.31,7.73-3.32,11.64
	c-0.75,2.88-1.44,5.78-2.11,8.68c-0.84,3.59-1.63,7.19-2.46,10.78c-0.52,2.26-1.24,4.45-2.07,6.62c-0.78,2.03-1.84,3.92-2.97,5.74
	c-1.63,2.62-3.74,4.86-6.19,6.76c-2.45,1.9-5.16,3.33-8.04,4.43c-2.12,0.81-4.32,1.37-6.56,1.79c-1.77,0.34-3.54,0.75-5.32,1.08
	c-3.39,0.63-6.8,1.18-10.27,1.2c-3.51,0.02-6.92-0.48-10.22-1.66c-1.86-0.67-3.6-1.6-5.26-2.7c-4.4-2.91-7.49-6.95-10.15-11.4
	c-1.41-2.36-2.9-4.68-4.36-7c-2.01-3.19-4.08-6.34-6.26-9.42c-3.28-4.65-6.87-9.04-10.94-13.04c-2.42-2.38-4.95-4.62-7.62-6.7
	c-1.45-1.12-2.96-2.17-4.48-3.21c-2.31-1.59-4.71-3.01-7.17-4.35c-3.16-1.72-6.44-3.18-9.78-4.53c-3.87-1.56-7.84-2.83-11.86-3.91
	c-3.1-0.83-6.27-1.45-9.41-2.15c-4.64-1.04-9.28-2.04-13.77-3.63c-2.46-0.87-4.87-1.84-7.05-3.28c-3.03-1.99-5.43-4.61-7.31-7.69
	c-1.85-3.03-3.14-6.31-4.05-9.72c-1.16-4.4-1.75-8.87-1.71-13.44c0.03-3.66,0.44-7.26,1.43-10.78
	C11.7,129.66,12.39,127.88,13.23,126.47z M128.68,244.88c0.67,0.4,1.61,0.94,2.63,1.3c2.69,0.97,5.47,1.5,8.33,1.62
	c3.44,0.15,6.82-0.36,10.18-0.97c2.16-0.39,4.28-0.92,6.44-1.29c2.98-0.51,5.85-1.41,8.58-2.66c3.52-1.61,6.59-3.84,9.02-6.93
	c1.42-1.8,2.71-3.65,3.69-5.75c1.04-2.24,1.9-4.52,2.48-6.91c0.82-3.41,1.58-6.83,2.36-10.25c1.43-6.24,2.96-12.46,4.77-18.61
	c0.86-2.93,1.81-5.83,2.83-8.7c0.79-2.21,1.65-4.39,2.53-6.57c0.9-2.21,1.84-4.39,2.93-6.5c1.9-3.67,3.98-7.25,6.6-10.49
	c1.41-1.75,2.88-3.44,4.49-5c4.04-3.9,8.54-7.2,13.26-10.22c4.29-2.75,8.74-5.24,13.15-7.78c2.55-1.47,5.05-2.99,7.27-4.92
	c2.6-2.26,4.7-4.88,5.9-8.18c1.27-3.49,1.66-7.11,1.63-10.78c-0.03-4.89-0.95-9.62-2.6-14.22c-0.81-2.26-1.84-4.4-3.11-6.43
	c-2.09-3.32-4.85-5.92-8.35-7.68c-2.21-1.11-4.57-1.87-6.94-2.57c-4.63-1.36-9.36-2.31-14.07-3.34c-3.02-0.66-6.01-1.42-8.98-2.28
	c-6.18-1.79-12.15-4.12-17.9-6.99c-2.32-1.16-4.56-2.47-6.77-3.85c-2.15-1.35-4.21-2.81-6.25-4.31c-2.12-1.56-4.12-3.25-6.05-5.02
	c-2.47-2.27-4.8-4.69-6.97-7.26c-3.19-3.78-6.08-7.78-8.81-11.91c-2.97-4.47-5.78-9.04-8.77-13.5c-1.99-2.96-3.97-5.95-6.56-8.45
	c-1.98-1.91-4.19-3.43-6.85-4.24c-1.49-0.46-3.02-0.71-4.55-0.95c-2.94-0.47-5.9-0.69-8.88-0.55c-2.31,0.11-4.6,0.38-6.88,0.82
	c-2.77,0.53-5.43,1.4-8.03,2.45c-2.48,1.01-4.82,2.29-7.11,3.66c-2.01,1.2-3.68,2.83-4.87,4.81c-0.85,1.41-1.67,2.87-2.27,4.45
	c-0.61,1.62-1.21,3.23-1.71,4.89c-1.17,3.91-1.97,7.91-2.84,11.9c-0.53,2.42-1.07,4.84-1.72,7.23c-0.85,3.14-1.77,6.25-2.84,9.33
	c-0.63,1.8-1.27,3.6-1.98,5.37c-0.58,1.45-1.22,2.87-1.89,4.29c-0.95,2.02-1.85,4.05-2.95,5.99c-1.6,2.8-3.34,5.53-5.26,8.13
	c-1.06,1.43-2.12,2.84-3.25,4.2c-1.64,1.98-3.41,3.83-5.22,5.66c-4.39,4.41-9.23,8.27-14.3,11.86c-3.96,2.8-8.04,5.43-12.2,7.93
	c-2.49,1.5-4.97,3.03-7.29,4.81c-2.37,1.81-4.59,3.76-6.36,6.19c-1.72,2.36-2.72,5.03-3.36,7.84c-0.67,2.95-0.99,5.95-0.97,8.97
	c0.02,4.16,0.49,8.26,1.6,12.27c0.37,1.34,0.71,2.71,1.22,4c0.73,1.87,1.56,3.71,2.62,5.44c1.61,2.65,3.63,4.92,6.16,6.68
	c2,1.4,4.25,2.35,6.56,3.17c4.5,1.61,9.13,2.7,13.79,3.68c7.21,1.52,14.35,3.24,21.22,5.97c2.92,1.16,5.8,2.41,8.61,3.83
	c3.59,1.81,7.03,3.87,10.33,6.17c1.83,1.28,3.65,2.59,5.37,4.02c2.74,2.26,5.34,4.68,7.81,7.25c3.11,3.24,5.92,6.72,8.57,10.32
	c1.56,2.12,3.06,4.28,4.46,6.51c1.36,2.15,2.76,4.27,4.11,6.42c1.98,3.15,3.78,6.42,6.04,9.4
	C122.66,240.53,125.21,243,128.68,244.88z"/>
<path class="st6" d="M214.23,38.32c1.27,3.74,1.82,7.61,1.89,11.55c0.08,4.77-0.49,9.5-1.05,14.23c-0.83,6.93-1.37,13.87-1.05,20.86
	c0.17,3.67,0.51,7.31,1.13,10.92c0.37,2.15,0.89,4.27,1.42,6.38c1.12,4.39,2.85,8.55,4.77,12.62c1.18,2.5,2.61,4.89,4.12,7.22
	c1.78,2.76,3.65,5.44,5.65,8.05c1.88,2.46,3.78,4.9,5.73,7.29c2.52,3.07,5.08,6.12,7.39,9.35c1.52,2.12,2.84,4.37,4.05,6.69
	c2.25,4.31,3.62,8.85,3.95,13.69c0.29,4.23-0.29,8.36-1.39,12.44c-0.67,2.49-1.57,4.88-2.56,7.25c-1.69,4.02-3.9,7.75-6.48,11.26
	c-2.41,3.28-5.14,6.27-8.31,8.82c-1.56,1.26-3.19,2.44-4.99,3.37c-0.48,0.25-1.02,0.43-1.41,0.85c-0.92,0.39-1.84,0.77-2.76,1.16
	c-0.83,0.04-1.59,0.38-2.38,0.58c-2.47,0.64-4.98,0.95-7.53,1.01c-2.89,0.06-5.77-0.12-8.64-0.45c-3.4-0.4-6.8-0.88-10.2-1.32
	c-6.78-0.87-13.57-1.69-20.43-1.03c-2.6,0.25-5.14,0.77-7.66,1.47c-2.91,0.81-5.68,1.98-8.37,3.28c-3.14,1.52-6.11,3.36-9.02,5.29
	c-4.74,3.15-9.36,6.46-13.9,9.89c-3.71,2.81-7.35,5.71-11.05,8.54c-3.66,2.8-7.25,5.71-11.07,8.28c-2.73,1.84-5.65,3.29-8.76,4.36
	c-6.57,2.26-13.23,2.38-19.96,0.76c-2.4-0.58-4.7-1.43-7-2.31c-1.99-0.76-3.95-1.57-5.88-2.45c-3.54-1.6-6.99-3.36-10.26-5.48
	c-3.71-2.4-7.08-5.19-9.97-8.52c-1.54-1.77-2.92-3.68-4.12-5.72c-0.92-1.57-1.78-3.16-2.45-4.85c-0.8-2.02-1.32-4.11-1.67-6.25
	c-0.78-4.81-0.55-9.64-0.2-14.47c0.45-6.17,1.18-12.32,1.53-18.5c0.27-4.62,0.34-9.24-0.06-13.85c-0.29-3.29-0.79-6.55-1.56-9.75
	c-0.52-2.19-1.11-4.37-1.92-6.49c-0.85-2.23-1.52-4.52-2.57-6.67c-0.91-1.85-1.8-3.7-2.81-5.51c-0.92-1.63-1.83-3.27-2.83-4.85
	c-0.98-1.55-2.04-3.05-3.07-4.56c-2.25-3.27-4.76-6.32-7.31-9.35c-2.83-3.36-5.61-6.77-8.14-10.35c-2.52-3.56-4.62-7.37-6.05-11.52
	c-1.33-3.84-1.86-7.78-1.75-11.84c0.09-3.64,0.79-7.17,1.82-10.64c0.77-2.59,1.8-5.09,2.94-7.55c1.86-4.01,4.17-7.75,6.84-11.26
	c2.96-3.88,6.35-7.35,10.3-10.23c2.57-1.88,5.37-3.36,8.38-4.44c3.46-1.24,7.04-1.76,10.69-1.9c2.9-0.11,5.79-0.03,8.67,0.23
	c3.2,0.29,6.39,0.65,9.6,0.93c2.96,0.25,5.93,0.48,8.9,0.63c3.89,0.2,7.79,0.2,11.69-0.03c3.74-0.22,7.43-0.71,11.08-1.47
	c1.73-0.35,3.43-0.85,5.13-1.36c3.21-0.98,6.37-2.08,9.39-3.54c2.01-0.97,4.02-1.95,5.96-3.06c3.26-1.87,6.42-3.9,9.46-6.1
	c4.04-2.92,7.87-6.12,11.7-9.31c2.39-1.99,4.84-3.9,7.39-5.68c1.64-1.14,3.39-2.15,5.16-3.11c1.92-1.03,3.92-1.86,5.95-2.6
	c1.67-0.61,3.42-0.96,5.18-1.26c3.18-0.53,6.36-0.59,9.55-0.23c2.15,0.24,4.27,0.64,6.36,1.19c1.24,0.33,2.5,0.65,3.68,1.12
	c1.35,0.54,2.73,0.97,4.06,1.59c2.3,1.07,4.55,2.22,6.72,3.53c0.05,0.03,0.1,0.07,0.15,0.1c0.55,0.35,1.11,0.7,1.66,1.05
	c0.05,0.03,0.1,0.07,0.15,0.1c0.43,0.3,0.87,0.61,1.31,0.91c0.05,0.03,0.1,0.07,0.15,0.1c3.52,2.52,6.74,5.38,9.57,8.66
	c1.77,2.06,3.38,4.23,4.71,6.61c0.44,0.78,0.87,1.56,1.28,2.35C213.31,36.14,213.77,37.23,214.23,38.32z M36.43,48.49
	c-1.89,0.73-3.9,1.91-5.79,3.28c-3.92,2.84-7.24,6.29-10.16,10.13c-2.88,3.8-5.31,7.88-7.16,12.29c-1.16,2.75-2.16,5.55-2.83,8.47
	c-1.05,4.59-1.33,9.2-0.45,13.85c0.31,1.65,0.71,3.29,1.29,4.86c0.49,1.35,1.08,2.67,1.74,3.96c1.21,2.37,2.62,4.62,4.15,6.79
	c2.88,4.07,6.12,7.85,9.3,11.69c3,3.63,5.84,7.39,8.39,11.35c1.56,2.42,3.02,4.9,4.32,7.48c0.9,1.78,1.85,3.54,2.65,5.38
	c0.98,2.27,1.75,4.62,2.54,6.96c0.54,1.61,1.01,3.23,1.41,4.87c0.85,3.48,1.43,7,1.73,10.58c0.34,3.97,0.37,7.96,0.18,11.93
	c-0.23,4.65-0.64,9.29-1.07,13.93c-0.33,3.54-0.68,7.07-0.8,10.63c-0.1,3-0.09,5.99,0.25,8.97c0.22,1.95,0.6,3.87,1.23,5.7
	c0.85,2.46,2,4.79,3.47,6.95c2,2.95,4.3,5.63,6.97,8c4.43,3.94,9.52,6.82,14.86,9.29c2.42,1.12,4.91,2.1,7.4,3.08
	c4.16,1.63,8.44,2.72,12.92,2.88c5.25,0.19,10.25-0.82,15-3.11c1.53-0.74,3.04-1.5,4.46-2.43c3.48-2.28,6.73-4.88,10.01-7.43
	c8.96-6.95,17.87-13.98,27.38-20.18c2.88-1.88,5.84-3.64,8.95-5.12c1.97-0.94,4-1.78,6.08-2.48c1.86-0.63,3.75-1.13,5.66-1.52
	c5.38-1.12,10.82-1.05,16.26-0.63c6.95,0.53,13.81,1.81,20.74,2.46c3.75,0.36,7.5,0.48,11.24-0.08c3.37-0.5,6.53-1.6,9.44-3.36
	c3.49-2.11,6.49-4.8,9.17-7.85c3-3.43,5.51-7.2,7.54-11.28c1.33-2.67,2.45-5.44,3.32-8.31c1.11-3.67,1.78-7.39,1.8-11.23
	c0.02-3.33-0.55-6.56-1.6-9.7c-1.02-3.08-2.51-5.94-4.24-8.68c-2.68-4.23-5.91-8.04-9.05-11.92c-1.95-2.4-3.87-4.83-5.76-7.28
	c-2.52-3.29-4.89-6.68-7.02-10.24c-1.19-1.99-2.37-3.98-3.34-6.08c-1.81-3.93-3.45-7.93-4.55-12.13c-0.61-2.33-1.17-4.68-1.58-7.05
	c-0.89-5.19-1.28-10.42-1.24-15.68c0.03-3.55,0.15-7.1,0.53-10.63c0.28-2.59,0.5-5.18,0.82-7.77c0.49-3.91,0.87-7.83,0.84-11.78
	c-0.03-3.54-0.46-7.01-1.49-10.4c-0.75-2.48-1.91-4.77-3.27-6.96c-2.97-4.77-6.81-8.75-11.24-12.19c-3.28-2.54-6.78-4.71-10.54-6.46
	c-4.46-2.07-9.1-3.54-13.99-4.19c-4.71-0.62-9.34-0.24-13.86,1.17c-3.04,0.94-5.89,2.36-8.6,4.05c-3.75,2.33-7.23,5.05-10.6,7.88
	c-5.18,4.35-10.45,8.57-16.17,12.21c-3.34,2.13-6.78,4.05-10.35,5.74c-2.65,1.25-5.39,2.29-8.18,3.21c-2.44,0.8-4.92,1.49-7.43,2.02
	c-3.84,0.8-7.73,1.27-11.65,1.47c-5.25,0.26-10.49,0.11-15.73-0.32c-2.6-0.21-5.21-0.39-7.8-0.66c-4.21-0.43-8.41-0.87-12.65-0.88
	C45.64,45.95,41.07,46.5,36.43,48.49z"/>
<path class="st6" d="M39.75,55.65c3.52-1.54,6.99-1.88,10.49-1.91c5.3-0.05,10.52,0.84,15.78,1.33c4.06,0.38,8.13,0.67,12.2,0.75
	c4.63,0.09,9.26-0.04,13.87-0.53c3.8-0.4,7.56-1.03,11.25-1.99c1.84-0.48,3.67-1.02,5.47-1.66c2.36-0.83,4.74-1.62,7-2.7
	c2.1-1.01,4.21-2.02,6.26-3.14c2.14-1.18,4.25-2.4,6.3-3.71c3.53-2.27,6.94-4.73,10.25-7.32c2.66-2.09,5.22-4.3,7.83-6.45
	c3-2.46,6.08-4.81,9.38-6.86c2.02-1.25,4.18-2.23,6.42-2.98c2.33-0.78,4.76-0.99,7.22-0.71c2.58,0.3,5.13,0.72,7.64,1.39
	c2.49,0.66,4.9,1.54,7.26,2.56c4.35,1.89,8.25,4.49,11.76,7.66c2.47,2.24,4.83,4.61,6.62,7.45c0.87,1.37,1.51,2.87,2,4.46
	c1.14,3.69,1.16,7.44,0.99,11.23c-0.22,4.75-0.71,9.48-1.16,14.21c-0.6,6.34-1.06,12.69-0.87,19.06c0.11,3.87,0.55,7.71,1.23,11.52
	c0.38,2.16,0.82,4.31,1.4,6.41c0.54,1.98,1.15,3.94,1.82,5.88c1.05,3.03,2.29,6,3.65,8.9c1.5,3.19,3.24,6.27,5.11,9.27
	c3.24,5.2,6.95,10.05,10.88,14.74c2.93,3.5,5.88,6.98,8.46,10.76c1.19,1.74,2.31,3.52,3.3,5.39c2.22,4.22,2.85,8.7,2.36,13.36
	c-0.26,2.52-0.86,4.98-1.67,7.4c-0.68,2.01-1.45,3.99-2.42,5.87c-2.28,4.44-5.07,8.51-8.74,11.96c-1.62,1.52-3.34,2.89-5.29,3.92
	c-1.26,0.67-2.62,1.18-4,1.62c-3.86,1.22-7.78,1.15-11.73,0.78c-2.93-0.28-5.84-0.79-8.76-1.18c-2.68-0.36-5.36-0.75-8.05-1.01
	c-2.19-0.21-4.39-0.42-6.59-0.53c-3.94-0.2-7.87-0.15-11.78,0.31c-2.07,0.24-4.11,0.68-6.15,1.17c-4.14,0.99-8,2.73-11.86,4.44
	c-1.58,0.7-3.08,1.6-4.6,2.45c-1.61,0.9-3.19,1.85-4.77,2.8c-2.04,1.24-4.03,2.58-6.01,3.91c-3.35,2.25-6.58,4.67-9.78,7.13
	c-2.36,1.81-4.69,3.67-7.01,5.54c-2.87,2.31-5.71,4.66-8.57,6.98c-1.8,1.46-3.71,2.75-5.71,3.94c-1.87,1.12-3.86,1.96-5.87,2.7
	c-2.9,1.06-5.93,1.53-9.04,1.51c-3.11-0.01-6.12-0.55-9.06-1.46c-2.17-0.67-4.24-1.58-6.27-2.63c-1.61-0.83-3.25-1.59-4.85-2.42
	c-3.06-1.59-6.09-3.25-8.84-5.38c-2.77-2.14-5.16-4.64-7.03-7.6c-1.06-1.67-1.85-3.48-2.48-5.37c-1.67-5-1.62-10.09-0.98-15.23
	c0.34-2.73,0.6-5.47,0.87-8.2c0.38-3.75,0.68-7.51,0.86-11.27c0.27-5.68,0.15-11.36-0.59-17.01c-0.44-3.36-1.06-6.69-1.89-9.97
	c-0.45-1.78-1-3.53-1.56-5.28c-0.85-2.67-1.86-5.27-2.97-7.84c-1.44-3.3-3.12-6.47-4.93-9.59c-2.09-3.62-4.44-7.06-6.94-10.38
	c-1.93-2.57-4.05-5-6.09-7.49c-3.01-3.67-6.06-7.32-8.62-11.34c-1.4-2.2-2.7-4.45-3.54-6.92c-1.16-3.43-1.44-6.98-1.03-10.57
	c0.41-3.52,1.4-6.9,2.79-10.15c1.79-4.18,4.08-8.07,6.92-11.64c2.28-2.86,4.82-5.45,7.76-7.62C36.59,57.22,38.23,56.25,39.75,55.65z
	 M57.86,220.03c0.28,0.72,0.69,1.73,1.27,2.64c1.53,2.42,3.39,4.55,5.57,6.4c2.62,2.23,5.6,3.91,8.62,5.51
	c1.94,1.02,3.94,1.91,5.87,2.95c2.67,1.43,5.48,2.49,8.4,3.18c3.76,0.9,7.56,1.03,11.38,0.09c2.23-0.55,4.39-1.21,6.45-2.26
	c2.19-1.12,4.28-2.4,6.21-3.92c2.75-2.18,5.45-4.41,8.17-6.62c4.97-4.04,10-8,15.21-11.73c2.48-1.78,5.01-3.48,7.58-5.12
	c1.98-1.26,4-2.45,6.04-3.62c2.06-1.19,4.15-2.33,6.31-3.32c3.76-1.72,7.6-3.27,11.66-4.21c2.19-0.51,4.39-0.94,6.62-1.18
	c5.58-0.59,11.16-0.42,16.74,0.11c5.07,0.47,10.11,1.25,15.15,1.96c2.91,0.41,5.82,0.76,8.76,0.6c3.44-0.18,6.7-0.96,9.68-2.82
	c3.15-1.97,5.68-4.58,7.92-7.49c2.98-3.87,5.18-8.17,6.7-12.81c0.75-2.28,1.26-4.6,1.5-6.98c0.39-3.9-0.18-7.65-1.86-11.19
	c-1.06-2.24-2.45-4.29-3.89-6.29c-2.81-3.92-5.95-7.58-9.03-11.29c-1.97-2.38-3.86-4.82-5.67-7.33c-3.77-5.22-7.04-10.73-9.8-16.52
	c-1.11-2.34-2.07-4.76-2.96-7.2c-0.86-2.39-1.59-4.8-2.27-7.24c-0.71-2.53-1.25-5.1-1.68-7.68c-0.55-3.31-0.9-6.65-1.02-10.01
	c-0.19-4.95,0-9.88,0.38-14.81c0.41-5.35,1.01-10.68,1.39-16.04c0.26-3.56,0.53-7.13,0.03-10.69c-0.38-2.72-1.19-5.28-2.78-7.56
	c-0.89-1.28-1.95-2.42-3-3.55c-2.03-2.18-4.22-4.17-6.66-5.9c-1.89-1.34-3.86-2.53-5.92-3.59c-2.51-1.29-5.14-2.24-7.84-3.01
	c-2.58-0.73-5.21-1.16-7.86-1.49c-2.33-0.29-4.64-0.03-6.8,0.8c-1.54,0.59-3.09,1.23-4.52,2.11c-1.47,0.9-2.95,1.8-4.35,2.8
	c-3.33,2.36-6.42,5.03-9.56,7.63c-1.91,1.58-3.82,3.16-5.81,4.64c-2.6,1.95-5.24,3.84-7.98,5.6c-1.6,1.03-3.22,2.05-4.86,3.01
	c-1.35,0.79-2.73,1.51-4.13,2.22c-1.99,1.01-3.95,2.06-6.01,2.9c-2.99,1.22-6.03,2.3-9.15,3.17c-1.71,0.47-3.42,0.93-5.15,1.31
	c-2.51,0.55-5.05,0.92-7.6,1.24c-6.18,0.77-12.37,0.84-18.57,0.55c-4.85-0.23-9.68-0.67-14.5-1.26c-2.89-0.35-5.79-0.67-8.71-0.7
	c-2.98-0.03-5.94,0.14-8.83,0.96c-2.8,0.8-5.24,2.29-7.47,4.1c-2.34,1.91-4.44,4.08-6.29,6.47c-2.54,3.29-4.7,6.81-6.29,10.65
	c-0.53,1.29-1.11,2.57-1.5,3.91c-0.58,1.93-1.05,3.89-1.29,5.9c-0.36,3.07-0.16,6.11,0.74,9.05c0.72,2.33,1.91,4.47,3.22,6.54
	c2.56,4.04,5.54,7.75,8.61,11.39c4.74,5.63,9.31,11.39,13.04,17.77c1.59,2.72,3.09,5.47,4.43,8.31c1.71,3.63,3.16,7.37,4.34,11.22
	c0.66,2.14,1.28,4.29,1.76,6.47c0.77,3.47,1.32,6.97,1.69,10.52c0.46,4.47,0.53,8.94,0.4,13.41c-0.07,2.63-0.23,5.26-0.49,7.88
	c-0.25,2.53-0.45,5.06-0.71,7.59c-0.38,3.7-0.97,7.39-1.03,11.12C55.79,212.9,56.28,216.41,57.86,220.03z"/>
<rect x="84.31" y="72.23" class="st7" width="265.25" height="294.07"/>
<text transform="matrix(1 0 0 1 84.3061 192.2032)" class="st4 st8 st9">S</text>
</svg>
